<mxfile host="65bd71144e">
    <diagram name="第 1 页" id="G_Y7OZYuZXXVaxpI4jWG">
        <mxGraphModel dx="446" dy="306" grid="1" gridSize="10" guides="1" tooltips="1" connect="1" arrows="1" fold="1" page="1" pageScale="1" pageWidth="827" pageHeight="1169" math="0" shadow="0">
            <root>
                <mxCell id="0"/>
                <mxCell id="1" parent="0"/>
                <mxCell id="2oo9nVYe7cRJxr6y7lbV-1" value="系統" style="shape=umlFrame;whiteSpace=wrap;html=1;pointerEvents=0;recursiveResize=0;container=1;collapsible=0;width=160;" parent="1" vertex="1">
                    <mxGeometry x="220" y="40" width="340" height="490" as="geometry"/>
                </mxCell>
                <mxCell id="2oo9nVYe7cRJxr6y7lbV-2" value="了解行程" style="ellipse;html=1;whiteSpace=wrap;" parent="2oo9nVYe7cRJxr6y7lbV-1" vertex="1">
                    <mxGeometry x="33" y="138" width="110" height="45" as="geometry"/>
                </mxCell>
                <mxCell id="2oo9nVYe7cRJxr6y7lbV-3" value="填問卷" style="ellipse;html=1;whiteSpace=wrap;" parent="2oo9nVYe7cRJxr6y7lbV-1" vertex="1">
                    <mxGeometry x="30" y="90" width="110" height="45" as="geometry"/>
                </mxCell>
                <mxCell id="2oo9nVYe7cRJxr6y7lbV-4" value="形成行程" style="ellipse;html=1;whiteSpace=wrap;" parent="2oo9nVYe7cRJxr6y7lbV-1" vertex="1">
                    <mxGeometry x="33" y="183" width="110" height="45" as="geometry"/>
                </mxCell>
                <mxCell id="2oo9nVYe7cRJxr6y7lbV-5" value="刪除/暫停執行完的行程" style="ellipse;html=1;whiteSpace=wrap;" parent="2oo9nVYe7cRJxr6y7lbV-1" vertex="1">
                    <mxGeometry x="33" y="230" width="137" height="50" as="geometry"/>
                </mxCell>
                <mxCell id="2oo9nVYe7cRJxr6y7lbV-6" value="臨時更改行程" style="ellipse;html=1;whiteSpace=wrap;" parent="2oo9nVYe7cRJxr6y7lbV-1" vertex="1">
                    <mxGeometry x="33" y="290" width="110" height="45" as="geometry"/>
                </mxCell>
                <mxCell id="2oo9nVYe7cRJxr6y7lbV-7" value="繁忙疏於管理的人" style="shape=umlActor;verticalLabelPosition=bottom;verticalAlign=top;html=1;" parent="1" vertex="1">
                    <mxGeometry x="30" y="40" width="40" height="70" as="geometry"/>
                </mxCell>
                <mxCell id="2oo9nVYe7cRJxr6y7lbV-8" value="" style="endArrow=open;startArrow=none;endFill=0;startFill=0;endSize=8;html=1;verticalAlign=bottom;labelBackgroundColor=none;strokeWidth=1;rounded=0;entryX=0;entryY=0.5;entryDx=0;entryDy=0;" parent="1" target="2oo9nVYe7cRJxr6y7lbV-2" edge="1">
                    <mxGeometry width="160" relative="1" as="geometry">
                        <mxPoint x="90" y="90" as="sourcePoint"/>
                        <mxPoint x="250" y="90" as="targetPoint"/>
                    </mxGeometry>
                </mxCell>
                <mxCell id="2oo9nVYe7cRJxr6y7lbV-9" value="登入" style="ellipse;html=1;whiteSpace=wrap;" parent="1" vertex="1">
                    <mxGeometry x="260" y="77" width="90" height="45" as="geometry"/>
                </mxCell>
                <mxCell id="2oo9nVYe7cRJxr6y7lbV-10" value="" style="endArrow=open;startArrow=none;endFill=0;startFill=0;endSize=8;html=1;verticalAlign=bottom;labelBackgroundColor=none;strokeWidth=1;rounded=0;entryX=0;entryY=0.5;entryDx=0;entryDy=0;" parent="1" target="2oo9nVYe7cRJxr6y7lbV-9" edge="1">
                    <mxGeometry width="160" relative="1" as="geometry">
                        <mxPoint x="100" y="76" as="sourcePoint"/>
                        <mxPoint x="270" y="159" as="targetPoint"/>
                    </mxGeometry>
                </mxCell>
                <mxCell id="2oo9nVYe7cRJxr6y7lbV-11" value="" style="endArrow=open;startArrow=none;endFill=0;startFill=0;endSize=8;html=1;verticalAlign=bottom;labelBackgroundColor=none;strokeWidth=1;rounded=0;entryX=0;entryY=0.5;entryDx=0;entryDy=0;" parent="1" target="2oo9nVYe7cRJxr6y7lbV-3" edge="1">
                    <mxGeometry width="160" relative="1" as="geometry">
                        <mxPoint x="97" y="80" as="sourcePoint"/>
                        <mxPoint x="260" y="191" as="targetPoint"/>
                    </mxGeometry>
                </mxCell>
                <mxCell id="2oo9nVYe7cRJxr6y7lbV-12" value="" style="endArrow=open;startArrow=none;endFill=0;startFill=0;endSize=8;html=1;verticalAlign=bottom;labelBackgroundColor=none;strokeWidth=1;rounded=0;entryX=0;entryY=0.5;entryDx=0;entryDy=0;" parent="1" target="2oo9nVYe7cRJxr6y7lbV-4" edge="1">
                    <mxGeometry width="160" relative="1" as="geometry">
                        <mxPoint x="90" y="110" as="sourcePoint"/>
                        <mxPoint x="253" y="221" as="targetPoint"/>
                    </mxGeometry>
                </mxCell>
                <mxCell id="2oo9nVYe7cRJxr6y7lbV-13" value="" style="endArrow=open;startArrow=none;endFill=0;startFill=0;endSize=8;html=1;verticalAlign=bottom;labelBackgroundColor=none;strokeWidth=1;rounded=0;entryX=0;entryY=0.5;entryDx=0;entryDy=0;" parent="1" target="2oo9nVYe7cRJxr6y7lbV-5" edge="1">
                    <mxGeometry width="160" relative="1" as="geometry">
                        <mxPoint x="90" y="130" as="sourcePoint"/>
                        <mxPoint x="253" y="266" as="targetPoint"/>
                    </mxGeometry>
                </mxCell>
                <mxCell id="2oo9nVYe7cRJxr6y7lbV-14" value="反饋行程安排" style="ellipse;html=1;whiteSpace=wrap;" parent="1" vertex="1">
                    <mxGeometry x="252" y="424" width="110" height="45" as="geometry"/>
                </mxCell>
                <mxCell id="2oo9nVYe7cRJxr6y7lbV-15" value="" style="endArrow=open;startArrow=none;endFill=0;startFill=0;endSize=8;html=1;verticalAlign=bottom;labelBackgroundColor=none;strokeWidth=1;rounded=0;entryX=0;entryY=0.5;entryDx=0;entryDy=0;" parent="1" target="2oo9nVYe7cRJxr6y7lbV-14" edge="1">
                    <mxGeometry width="160" relative="1" as="geometry">
                        <mxPoint x="80" y="150" as="sourcePoint"/>
                        <mxPoint x="252" y="419" as="targetPoint"/>
                    </mxGeometry>
                </mxCell>
                <mxCell id="2oo9nVYe7cRJxr6y7lbV-16" value="" style="endArrow=open;startArrow=none;endFill=0;startFill=0;endSize=8;html=1;verticalAlign=bottom;labelBackgroundColor=none;strokeWidth=1;rounded=0;entryX=0;entryY=0.5;entryDx=0;entryDy=0;" parent="1" target="2oo9nVYe7cRJxr6y7lbV-6" edge="1">
                    <mxGeometry width="160" relative="1" as="geometry">
                        <mxPoint x="90" y="140" as="sourcePoint"/>
                        <mxPoint x="263" y="276" as="targetPoint"/>
                    </mxGeometry>
                </mxCell>
            </root>
        </mxGraphModel>
    </diagram>
</mxfile>